# xmcd CD database file
#
# Track frame offsets:
#	150
#	11564
#	26753
#	41513
#	55232
#	66948
#	86124
#	97267
#	109736
#	124342
#	138190
#	151881
#	162970
#	185638
#	197895
#	216193
#	233387
#
# Disc length: 3373 seconds
#
# Revision: 0
# Processed by: cddbd v1.5PL3 Copyright (c) Steve Scherf et al.
# Submitted via: CDex 1.50beta9
#
DISCID=ee0d2b11
DTITLE=BR5-49 - The Best Of BR5-49 - It Ain't Bad For Work If Ya Gotta Have A Job
DYEAR=2002
DGENRE=Country
TTITLE0=Cherokee Boogie
TTITLE1=Little Ramona (Gone Hillbilly Nuts)
TTITLE2=Even If It's Wrong
TTITLE3=Lifetime To Prove
TTITLE4=Honky Tonk Song
TTITLE5=Hickory Wind
TTITLE6=Out Of Habit
TTITLE7=You Are Never Nice To Me
TTITLE8=My Name Is Mudd
TTITLE9=Georgia On A Fast Train
TTITLE10=A House Of Gold
TTITLE11=You're A Hum-Dinger
TTITLE12=18 Wheels And A Crowbar
TTITLE13=Seven Nights To Rock
TTITLE14=Bettie Plug-Bettie Bettie
TTITLE15=Me'n'Opie (Down By The Duck Pond)
TTITLE16=Uneasy Rider
EXTD=YEAR: 2002
EXTT0=
EXTT1=
EXTT2=
EXTT3=
EXTT4=
EXTT5=
EXTT6=
EXTT7=
EXTT8=
EXTT9=
EXTT10=
EXTT11=
EXTT12=
EXTT13=
EXTT14=
EXTT15=
EXTT16=
PLAYORDER=
